<svg width="128" height="128" version="1.1" xmlns="http://www.w3.org/2000/svg" desc="Created with imagetracer.js version 1.2.6" ><path fill="rgb(49,91,220)" stroke="rgb(49,91,220)" stroke-width="1" opacity="0.6705882352941176" d="M 126.5 24 L 127 26.5 L 125.5 31 L 125 27.5 L 126.5 24 Z " /><path fill="rgb(49,91,220)" stroke="rgb(49,91,220)" stroke-width="1" opacity="0.6705882352941176" d="M 124.5 32 L 125 35.5 L 124 35.5 L 124.5 32 Z " /><path fill="rgb(49,91,220)" stroke="rgb(49,91,220)" stroke-width="1" opacity="0.6705882352941176" d="M 123.5 37 L 124 40.5 L 123 40.5 L 123.5 37 Z " /><path fill="rgb(49,91,220)" stroke="rgb(49,91,220)" stroke-width="1" opacity="0.6705882352941176" d="M 122.5 42 L 125 48 L 122 49.5 L 124 52.5 L 121.5 56 Q 123.8 55.3 123 57.5 L 117.5 64 L 118 62.5 L 122 57.5 Q 117.5 55 123 52.5 L 121 49.5 Q 126.5 47 122 44.5 L 122.5 42 Z " /><path fill="rgb(0,0,0)" stroke="rgb(0,0,0)" stroke-width="1" opacity="0" d="M 0 0 L 128 0 L 128 128 L 0 128 L 0 0 Z M 9 6 L 1 26 L 5 41 Q 6 46 3 48 L 6 50 L 4 53 Q 10 55 5 58 L 10 64 L 2 90 L 9 115 L 12 118 L 38 110 L 54 122 L 75 122 L 89 111 L 94 111 L 118 118 L 126 92 L 126 89 L 118 67 L 118 64 L 123 58 Q 124 55 122 56 L 124 53 L 122 50 L 125 48 L 123 45 L 127 27 L 121 6 L 110 9 L 80 21 L 48 21 L 9 6 Z " /><path fill="rgb(107,59,29)" stroke="rgb(107,59,29)" stroke-width="1" opacity="0.984313725490196" d="M 7 7 L 9.5 7 L 54 40.5 Q 54.5 45.5 50.5 46 L 38.5 56 L 31.5 57 L 10.5 64 L 5 57.5 Q 9.5 55 4 52.5 L 6 49.5 L 3 47.5 Q 5.8 45.8 5 40.5 L 1 25.5 L 7 7 Z " /><path fill="rgb(107,59,29)" stroke="rgb(107,59,29)" stroke-width="1" opacity="0.984313725490196" d="M 49.5 75 L 53 81.5 L 50.5 82 L 42 78.5 L 49.5 75 Z " /><path fill="rgb(107,59,29)" stroke="rgb(107,59,29)" stroke-width="1" opacity="0.984313725490196" d="M 78.5 75 L 86 79.5 L 75.5 83 L 75 80.5 L 78.5 75 Z " /><path fill="rgb(107,59,29)" stroke="rgb(107,59,29)" stroke-width="1" opacity="0.984313725490196" d="M 55.5 100 L 70.5 100 L 73 101 L 74 111.5 L 72.5 111 L 55.5 111 L 53 112 L 54 101.5 L 55.5 100 Z " /><path fill="rgb(246,130,27)" stroke="rgb(246,130,27)" stroke-width="1" opacity="0.5176470588235295" d="M 48.5 21 L 63 21.5 L 48.5 22 L 48.5 21 Z " /><path fill="rgb(246,130,27)" stroke="rgb(246,130,27)" stroke-width="1" opacity="0.5176470588235295" d="M 10.5 64 L 11 66.5 L 6.5 79 L 6 76.5 L 10.5 64 Z " /><path fill="rgb(225,118,36)" stroke="rgb(225,118,36)" stroke-width="1" opacity="0.5137254901960784" d="M 8.5 6 L 12 7.5 L 10.5 8 L 8.5 6 Z " /><path fill="rgb(225,118,36)" stroke="rgb(225,118,36)" stroke-width="1" opacity="0.5137254901960784" d="M 13.5 8 L 20 10.5 L 18.5 11 L 13.5 9 L 13.5 8 Z " /><path fill="rgb(225,118,36)" stroke="rgb(225,118,36)" stroke-width="1" opacity="0.5137254901960784" d="M 21.5 11 L 28 13.5 L 26.5 14 L 21.5 12 L 21.5 11 Z " /><path fill="rgb(225,118,36)" stroke="rgb(225,118,36)" stroke-width="1" opacity="0.5137254901960784" d="M 29.5 14 L 36 16.5 L 34.5 17 L 29.5 15 L 29.5 14 Z " /><path fill="rgb(225,118,36)" stroke="rgb(225,118,36)" stroke-width="1" opacity="0.5137254901960784" d="M 37.5 17 L 44 19.5 L 42.5 20 L 37.5 18 L 37.5 17 Z " /><path fill="rgb(225,118,36)" stroke="rgb(225,118,36)" stroke-width="1" opacity="0.5137254901960784" d="M 4.5 95 L 6 100.5 L 5 100.5 L 4.5 95 Z " /><path fill="rgb(225,118,36)" stroke="rgb(225,118,36)" stroke-width="1" opacity="0.5137254901960784" d="M 6.5 102 L 8 107.5 L 7 107.5 L 6.5 102 Z " /><path fill="rgb(225,118,36)" stroke="rgb(225,118,36)" stroke-width="1" opacity="0.5137254901960784" d="M 34.5 110 L 37 110.5 L 34.5 111 L 34.5 110 Z " /><path fill="rgb(225,118,36)" stroke="rgb(225,118,36)" stroke-width="1" opacity="0.5137254901960784" d="M 30.5 111 L 33 111.5 L 27.5 113 L 27.5 112 L 30.5 111 Z " /><path fill="rgb(225,118,36)" stroke="rgb(225,118,36)" stroke-width="1" opacity="0.5137254901960784" d="M 9.5 112 L 11 116.5 L 10 116.5 L 9.5 112 Z " /><path fill="rgb(225,118,36)" stroke="rgb(225,118,36)" stroke-width="1" opacity="0.5137254901960784" d="M 23.5 113 L 26 113.5 L 23.5 114 L 23.5 113 Z " /><path fill="rgb(225,118,36)" stroke="rgb(225,118,36)" stroke-width="1" opacity="0.5137254901960784" d="M 19.5 114 L 22 114.5 L 16.5 116 L 16.5 115 L 19.5 114 Z " /><path fill="rgb(225,118,36)" stroke="rgb(225,118,36)" stroke-width="1" opacity="0.5137254901960784" d="M 12.5 116 L 15 116.5 L 12.5 117 L 12.5 116 Z " /><path fill="rgb(187,201,241)" stroke="rgb(187,201,241)" stroke-width="1" opacity="0.996078431372549" d="M 64 21 L 79.5 21 L 80 22.5 L 73 40.5 L 72 65.5 L 71 66.5 L 71 94.5 L 72 94.5 L 74 83 L 88 80 L 87 88.5 L 89 87.5 L 99 68.5 L 92 57.5 L 93.5 57 L 117 64 L 125 90 L 87.5 90 L 72.5 101 L 71.5 100 L 64 100 L 64 21 Z " /><path fill="rgb(187,201,241)" stroke="rgb(187,201,241)" stroke-width="1" opacity="0.996078431372549" d="M 53.5 101 L 54 105.5 L 53 112 L 72.5 111 L 74 111.5 L 73 102 L 89 109.5 L 74.5 121 L 53.5 121 L 38 109.5 L 53.5 101 Z " /><path fill="rgb(44,86,221)" stroke="rgb(44,86,221)" stroke-width="1" opacity="0.996078431372549" d="M 119.5 7 L 121 8.5 L 126 26.5 L 122 44.5 L 124 46.5 Q 118.5 49 123 51.5 L 120 55.5 L 122 57.5 L 118 61.5 Q 118.9 64.9 113.5 63 L 90.5 56 L 73 41.5 L 119.5 7 Z " /><path fill="rgb(44,86,221)" stroke="rgb(44,86,221)" stroke-width="1" opacity="0.996078431372549" d="M 81.5 76 L 87 78.5 L 85.5 79 L 81.5 77 L 81.5 76 Z " /><path fill="rgb(244,132,32)" stroke="rgb(244,132,32)" stroke-width="1" opacity="0.996078431372549" d="M 47.5 21 L 48.5 22 L 62.5 22 L 64 21.5 L 64 99.5 Q 63.8 100.8 57.5 100 L 55.5 99 Q 53 103.5 50.5 98 L 40.5 90 L 3 90 L 11 64 L 36.5 57 L 36 58.5 L 30 68.5 L 39.5 87 L 40 79 L 51.5 82 L 55 84.5 L 56.5 92 L 57 79.5 L 56 78.5 L 56 63.5 L 55 62.5 L 55 46.5 L 54 43.5 L 55 41.5 L 49 28.5 L 47.5 21 Z " /><path fill="rgb(201,98,39)" stroke="rgb(201,98,39)" stroke-width="1" opacity="0.9921568627450981" d="M 11.5 8 L 13.5 11 L 11.5 8 Z " /><path fill="rgb(201,98,39)" stroke="rgb(201,98,39)" stroke-width="1" opacity="0.9921568627450981" d="M 15.5 11 L 16.5 13 L 15.5 11 Z " /><path fill="rgb(201,98,39)" stroke="rgb(201,98,39)" stroke-width="1" opacity="0.9921568627450981" d="M 19.5 14 L 20.5 16 L 19.5 14 Z " /><path fill="rgb(201,98,39)" stroke="rgb(201,98,39)" stroke-width="1" opacity="0.9921568627450981" d="M 23.5 17 L 24.5 19 L 23.5 17 Z " /><path fill="rgb(201,98,39)" stroke="rgb(201,98,39)" stroke-width="1" opacity="0.9921568627450981" d="M 27.5 20 L 28.5 22 L 27.5 20 Z " /><path fill="rgb(201,98,39)" stroke="rgb(201,98,39)" stroke-width="1" opacity="0.9921568627450981" d="M 31.5 23 L 32.5 25 L 31.5 23 Z " /><path fill="rgb(201,98,39)" stroke="rgb(201,98,39)" stroke-width="1" opacity="0.9921568627450981" d="M 35.5 26 L 36.5 28 L 35.5 26 Z " /><path fill="rgb(201,98,39)" stroke="rgb(201,98,39)" stroke-width="1" opacity="0.9921568627450981" d="M 38.5 28 L 40.5 31 L 38.5 28 Z " /><path fill="rgb(201,98,39)" stroke="rgb(201,98,39)" stroke-width="1" opacity="0.9921568627450981" d="M 42.5 31 L 43.5 33 L 42.5 31 Z " /><path fill="rgb(201,98,39)" stroke="rgb(201,98,39)" stroke-width="1" opacity="0.9921568627450981" d="M 46.5 34 L 47.5 36 L 46.5 34 Z " /><path fill="rgb(201,98,39)" stroke="rgb(201,98,39)" stroke-width="1" opacity="0.9921568627450981" d="M 50.5 37 L 51.5 39 L 50.5 37 Z " /><path fill="rgb(201,98,39)" stroke="rgb(201,98,39)" stroke-width="1" opacity="0.9921568627450981" d="M 49.5 46 L 47.5 49 L 49.5 46 Z " /><path fill="rgb(201,98,39)" stroke="rgb(201,98,39)" stroke-width="1" opacity="0.9921568627450981" d="M 43.5 51 L 40.5 55 L 43.5 51 Z " /><path fill="rgb(201,98,39)" stroke="rgb(201,98,39)" stroke-width="1" opacity="0.9921568627450981" d="M 31 68 L 48.5 68 L 49.5 69 L 56 69 L 54 81.5 L 52.5 83 L 52 80.5 L 49.5 75 L 42 78.5 L 42.5 80 L 31 69.5 L 31 68 Z " /><path fill="rgb(201,98,39)" stroke="rgb(201,98,39)" stroke-width="1" opacity="0.9921568627450981" d="M 26.5 91 L 40.5 91 L 41 94.5 L 40 95.5 L 39 109 Q 36.3 110.1 37 107.5 L 27 93.5 L 26.5 91 Z " /><path fill="rgb(201,98,39)" stroke="rgb(201,98,39)" stroke-width="1" opacity="0.9921568627450981" d="M 55.5 111 L 63 111.5 L 55.5 112 L 55.5 111 Z " /><path fill="rgb(178,198,232)" stroke="rgb(178,198,232)" stroke-width="1" opacity="0.34901960784313724" d="M 109.5 9 L 111 9.5 L 107.5 11 L 107.5 10 L 109.5 9 Z " /><path fill="rgb(178,198,232)" stroke="rgb(178,198,232)" stroke-width="1" opacity="0.34901960784313724" d="M 101.5 12 L 103 12.5 L 99.5 14 L 99.5 13 L 101.5 12 Z " /><path fill="rgb(178,198,232)" stroke="rgb(178,198,232)" stroke-width="1" opacity="0.34901960784313724" d="M 117.5 64 L 126 88.5 L 126 91.5 L 125 91.5 L 125 88.5 L 117 66.5 L 117.5 64 Z " /><path fill="rgb(178,198,232)" stroke="rgb(178,198,232)" stroke-width="1" opacity="0.34901960784313724" d="M 124.5 93 L 125 95.5 L 124 95.5 L 124.5 93 Z " /><path fill="rgb(178,198,232)" stroke="rgb(178,198,232)" stroke-width="1" opacity="0.34901960784313724" d="M 38.5 110 L 53 120.5 L 50.5 119 Q 42.5 115.5 38.5 110 Z " /><path fill="rgb(178,198,232)" stroke="rgb(178,198,232)" stroke-width="1" opacity="0.34901960784313724" d="M 88.5 110 L 93 110.5 L 88.5 111 L 74.5 122 L 54.5 122 L 54.5 121 L 74.5 121 L 88.5 110 Z " /><path fill="rgb(178,198,232)" stroke="rgb(178,198,232)" stroke-width="1" opacity="0.34901960784313724" d="M 108.5 115 L 111 115.5 L 108.5 116 L 108.5 115 Z " /><path fill="rgb(103,144,248)" stroke="rgb(103,144,248)" stroke-width="1" opacity="0.9725490196078431" d="M 117.5 7 L 119 7.5 L 73.5 41 L 74 39.5 L 80 21 L 117.5 7 Z " /><path fill="rgb(103,144,248)" stroke="rgb(103,144,248)" stroke-width="1" opacity="0.9725490196078431" d="M 73 42 L 92 56 L 99 68.5 L 87.5 89 L 87 85.5 L 88 80 L 86 79.5 L 86.5 78 L 77 75 L 74 81.5 L 71.5 95 L 71 66.5 L 72 65.5 L 72 49.5 L 73 48.5 L 73 42 Z " /><path fill="rgb(103,144,248)" stroke="rgb(103,144,248)" stroke-width="1" opacity="0.9725490196078431" d="M 87.5 90 L 124.5 90 L 125 92.5 L 118 117 L 89.5 110 L 73 101.5 L 87.5 90 Z " /><path fill="rgb(225,118,37)" stroke="rgb(225,118,37)" stroke-width="1" opacity="0.996078431372549" d="M 12.5 8 L 47 21 L 54 39.5 L 50.5 37 L 14.5 11 L 12.5 8 Z " /><path fill="rgb(225,118,37)" stroke="rgb(225,118,37)" stroke-width="1" opacity="0.996078431372549" d="M 52.5 44 Q 54.8 43.3 54 45.5 L 55 46.5 L 55 62.5 L 56 69 L 49.5 69 L 48.5 68 L 31.5 68 L 30 68.5 L 37 57.5 L 36.5 56 L 40.5 55 L 52.5 44 Z " /><path fill="rgb(225,118,37)" stroke="rgb(225,118,37)" stroke-width="1" opacity="0.996078431372549" d="M 31.5 70 L 41 78.5 L 39.5 87 L 31.5 70 Z " /><path fill="rgb(225,118,37)" stroke="rgb(225,118,37)" stroke-width="1" opacity="0.996078431372549" d="M 55.5 71 L 57 79.5 L 57 91.5 L 56 91.5 L 55 84.5 L 53 82.5 L 55.5 71 Z " /><path fill="rgb(225,118,37)" stroke="rgb(225,118,37)" stroke-width="1" opacity="0.996078431372549" d="M 3 90 L 40.5 90 L 53 100.5 Q 53.8 102.8 51.5 102 L 39 108 L 41 91 L 26 91.5 L 38 109.5 L 11.5 117 L 3 90 Z " /></svg>